<svg width="45" height="45" viewBox="0 0 45 45" fill="none" xmlns="http://www.w3.org/2000/svg">
<rect width="45" height="45" transform="matrix(-1 0 0 1 45 0)" fill="#412000"/>
<path d="M42.1087 2.8913H2.8913V42.1087H42.1087V2.8913Z" fill="#964B00"/>
<path d="M42.1087 2.8913H2.89131V42.1087H42.1087V2.8913Z" fill="#964B00"/>
<path d="M3.46749 13.6299L13.6299 3.46749" stroke="#412000"/>
<path d="M2.8913 6.67279L6.67279 2.8913" stroke="#412000"/>
<path d="M3.46749 22.3749L22.3749 3.46749" stroke="#412000"/>
<path d="M3.46749 30.5233L30.5681 3.42269" stroke="#412000"/>
<path d="M3.46749 38.1311L38.1311 3.46748" stroke="#412000"/>
<path d="M7.0327 41.6963L41.6963 7.03271" stroke="#412000"/>
<path d="M35.5544 41.8569L41.8569 35.5545" stroke="#412000"/>
<path d="M21.2935 41.4615L41.4615 21.2935" stroke="#412000"/>
<path d="M29.3153 41.9203L41.9203 29.3153" stroke="#412000"/>
<path d="M14.1707 41.9706L42.1087 14.0326" stroke="black"/>
<path d="M14.1707 41.9706L42.1087 14.0326" stroke="#412000"/>
</svg>
