<svg width="320" height="320" xmlns="http://www.w3.org/2000/svg" fill="none">

 <g>
  <title>Layer 1</title>
  <path id="svg_26" fill="#949191" d="m211,161l49,0l0,149l-49,0l0,-149z"/>
  <rect id="svg_1" fill="#303030" height="320" width="320"/>
  <rect id="svg_2" fill="#036C07" height="299" width="299" y="11" x="11"/>
  <path stroke="null" id="svg_23" fill="#949191" d="m161,10.77951l149.17583,0l0,99.22049l-149.17583,0l0,-99.22049z"/>
  <path stroke="null" id="svg_13" fill="#949191" d="m211,161l99.13679,0l0,149l-99.13679,0l0,-149z"/>
  <path stroke="null" id="svg_25" fill="#949191" d="m10.90576,11l98.93428,0l0,149l-98.93428,0l0,-149z"/>
  <line id="svg_3" stroke="black" y2="310" x2="10.5" y1="10" x1="10.5"/>
  <path stroke="null" id="svg_14" fill="#949191" d="m11,211l150,0l0,98.99978l-150,0l0,-98.99978z"/>
  <line id="svg_4" stroke="black" y2="310" x2="210.5" y1="10" x1="210.5"/>
  <line id="svg_5" stroke="black" y2="311" x2="310.5" y1="10" x1="310.5"/>
  <line id="svg_6" stroke="black" y2="310" x2="260.5" y1="10" x1="260.5"/>
  <line id="svg_7" stroke="black" y2="310.5" x2="10" y1="310.5" x1="310"/>
  <line id="svg_8" stroke="black" y2="10.5" x2="10" y1="10.5" x1="310"/>
  <line id="svg_9" stroke="black" y2="160.5" x2="10" y1="160.5" x1="310"/>
  <line id="svg_10" stroke="black" y2="110.5" x2="10" y1="110.5" x1="310"/>
  <line id="svg_16" stroke="black" y2="60.5" x2="10" y1="60.5" x1="310"/>
  <line id="svg_17" stroke="black" y2="260.5" x2="10" y1="260.5" x1="310"/>
  <line id="svg_18" stroke="black" y2="210.5" x2="10" y1="210.5" x1="310"/>
  <line id="svg_19" stroke="black" y2="310" x2="110.5" y1="10" x1="110.5"/>
  <line id="svg_20" stroke="black" y2="10" x2="59.5" y1="310.002" x1="59.5"/>
  <line id="svg_21" stroke="black" y2="311" x2="160.5" y1="10" x1="160.5"/>
 </g>
</svg>