<svg width="320" height="320" viewBox="0 0 320 320" fill="none" xmlns="http://www.w3.org/2000/svg">
<rect width="320" height="320" fill="#303030"/>
<rect x="11" y="11" width="299" height="299" fill="#036C07"/>
<line x1="10.5" y1="10" x2="10.5" y2="310" stroke="black"/>
<line x1="210.5" y1="10" x2="210.5" y2="310" stroke="black"/>
<line x1="310.5" y1="10" x2="310.5" y2="311" stroke="black"/>
<line x1="260.5" y1="10" x2="260.5" y2="310" stroke="black"/>
<line x1="310" y1="310.5" x2="10" y2="310.5" stroke="black"/>
<line x1="310" y1="10.5" x2="10" y2="10.5" stroke="black"/>
<line x1="310" y1="160.5" x2="10" y2="160.5" stroke="black"/>
<line x1="310" y1="110.5" x2="10" y2="110.5" stroke="black"/>
<rect x="60" y="61" width="50" height="49" fill="#949191"/>
<rect x="160" y="11" width="50" height="99" fill="#949191"/>
<path d="M161 161H210V310H161V161Z" fill="#949191"/>
<path d="M161 161H210V310H161V161Z" fill="#949191"/>
<path d="M11 261H161V310H11V261Z" fill="#949191"/>
<rect x="60" y="161" width="50" height="49" fill="#949191"/>
<line x1="310" y1="60.5" x2="10" y2="60.5" stroke="black"/>
<line x1="310" y1="260.5" x2="10" y2="260.5" stroke="black"/>
<line x1="310" y1="210.5" x2="10" y2="210.5" stroke="black"/>
<line x1="110.5" y1="10" x2="110.5" y2="310" stroke="black"/>
<line x1="59.5" y1="310.002" x2="59.5" y2="10" stroke="black"/>
<line x1="160.5" y1="10" x2="160.5" y2="311" stroke="black"/>
</svg>
